<?xml version="1.0" encoding="UTF-8"?>
<svg width="24px" height="24px" viewBox="0 0 24 24" version="1.1" xmlns="http://www.w3.org/2000/svg" xmlns:xlink="http://www.w3.org/1999/xlink">
    <!-- Generator: Sketch 48.1 (47250) - http://www.bohemiancoding.com/sketch -->
    <title>mobile-menu</title>
    <desc>Created with Sketch.</desc>
    <defs></defs>
    <g id="Page-1" stroke="none" stroke-width="1" fill="none" fill-rule="evenodd">
        <g id="mobile-menu" fill="#B1B1B1">
            <path d="M21.9,10 L2.1,10 C1.4928,10 1,10.672 1,11.5 C1,12.328 1.4928,13 2.1,13 L21.9,13 C22.5072,13 23,12.328 23,11.5 C23,10.672 22.5072,10 21.9,10 M21.9,17 L2.1,17 C1.4928,17 1,17.672 1,18.5 C1,19.328 1.4928,20 2.1,20 L21.9,20 C22.5072,20 23,19.328 23,18.5 C23,17.672 22.5072,17 21.9,17 M2.1,6 L21.9,6 C22.5072,6 23,5.328 23,4.5 C23,3.672 22.5072,3 21.9,3 L2.1,3 C1.4928,3 1,3.672 1,4.5 C1,5.328 1.4928,6 2.1,6" id="icon"></path>
        </g>
    </g>
</svg>