<?xml version="1.0" encoding="UTF-8"?>
<svg width="24px" height="24px" viewBox="0 0 24 24" version="1.1" xmlns="http://www.w3.org/2000/svg" xmlns:xlink="http://www.w3.org/1999/xlink">
    <!-- Generator: Sketch 48.1 (47250) - http://www.bohemiancoding.com/sketch -->
    <title>youtube</title>
    <desc>Created with Sketch.</desc>
    <defs></defs>
    <g id="Page-1" stroke="none" stroke-width="1" fill="none" fill-rule="evenodd">
        <g id="youtube" fill="#B1B1B1">
            <path d="M9.71855016,15.1826408 L9.71786337,8.51520082 L15.6552125,11.8604152 L9.71855016,15.1826408 Z M22.7551724,7.3598375 C22.7551724,7.3598375 22.5402301,5.72467959 21.8816693,5.00461695 C21.0459356,4.0591174 20.1092544,4.05466802 19.6800568,3.99979186 C16.6049412,3.75952381 11.9922679,3.75952381 11.9922679,3.75952381 L11.9826537,3.75952381 C11.9826537,3.75952381 7.36998041,3.75952381 4.29486481,3.99979186 C3.86498041,4.05466802 2.92898602,4.0591174 2.09256556,5.00461695 C1.4340047,5.72467959 1.21974922,7.3598375 1.21974922,7.3598375 C1.21974922,7.3598375 1,9.28049936 1,11.2004194 L1,13.0009472 C1,14.9216089 1.21974922,16.8415289 1.21974922,16.8415289 C1.21974922,16.8415289 1.4340047,18.476687 2.09256556,19.1967496 C2.92898602,20.1422492 4.02704545,20.1125864 4.51598746,20.211215 C6.27398119,20.3936408 11.9874608,20.45 11.9874608,20.45 C11.9874608,20.45 16.6049412,20.4425843 19.6800568,20.2023162 C20.1092544,20.1466985 21.0459356,20.1422492 21.8816693,19.1967496 C22.5402301,18.476687 22.7551724,16.8415289 22.7551724,16.8415289 C22.7551724,16.8415289 22.9749216,14.9216089 22.9749216,13.0009472 L22.9749216,11.2004194 C22.9749216,9.28049936 22.7551724,7.3598375 22.7551724,7.3598375 L22.7551724,7.3598375 Z" id="Youtube"></path>
        </g>
    </g>
</svg>