<?xml version="1.0" encoding="UTF-8"?>
<svg width="245px" height="75px" viewBox="0 0 245 75" version="1.1" xmlns="http://www.w3.org/2000/svg" xmlns:xlink="http://www.w3.org/1999/xlink">
    <!-- Generator: Sketch 48.1 (47250) - http://www.bohemiancoding.com/sketch -->
    <title>logo-contrast</title>
    <desc>Created with Sketch.</desc>
    <defs>
        <polygon id="path-1" points="0 74.3246201 244.695276 74.3246201 244.695276 0.596782979 0 0.596782979"></polygon>
    </defs>
    <g id="Page-1" stroke="none" stroke-width="1" fill="none" fill-rule="evenodd">
        <g id="logo-contrast">
            <g id="Page-1">
                <polygon id="Fill-1" fill="#1D1D1B" points="50.2824013 40.2084011 58.8672015 40.2084011 58.8672015 1.2184364 50.2824013 1.2184364"></polygon>
                <polygon id="Fill-2" fill="#1D1D1B" points="19.6234807 12.7721863 0 1.2184364 0 10.3781052 19.6234807 21.9318551 39.244801 10.3781052 39.244801 1.2184364"></polygon>
                <polygon id="Fill-3" fill="#1D1D1B" points="31.8864008 19.2149826 40.4712011 14.6212367 40.4712011 41.4268374 31.8864008 41.4268374"></polygon>
                <polygon id="Fill-4" fill="#1D1D1B" points="0 41.4268374 8.58480022 41.4268374 8.58480022 19.2131698 0 14.6212367"></polygon>
                <polygon id="Fill-5" fill="#1D1D1B" points="67.4520018 1.2184364 67.4520018 40.2084011 76.036802 40.2084011 76.036802 33.1572083 76.0321853 33.1572083 76.0321853 1.2184364"></polygon>
                <polygon id="Fill-6" fill="#1D1D1B" points="79.7160021 41.4268374 94.4328025 41.4268374 94.4328025 34.1162191 79.7160021 34.1162191"></polygon>
                <g id="Group-46">
                    <path d="M142.255834,19.1171667 C142.932544,12.6050184 147.549064,7.91163721 154.145344,7.91163721 C158.680834,7.91163721 161.878234,10.0583071 163.739734,13.0771983 L169.959334,8.6658135 C166.413724,3.15048949 161.295694,0.597220183 154.145344,0.597220183 C143.357404,0.597220183 134.682814,8.32260864 133.863753,19.1171667 L142.255834,19.1171667 Z" id="Fill-7" fill="#1D1D1B"></path>
                    <path d="M154.144687,33.795842 C147.565927,33.795842 142.960357,29.0325082 142.261747,22.533476 L133.867476,22.533476 C134.712817,33.3018019 143.376457,41.0512365 154.144687,41.0512365 C161.761507,41.0512365 167.227747,37.6847684 170.659477,32.3443259 L164.319427,27.9919635 C162.109717,31.3584316 159.260527,33.795842 154.144687,33.795842" id="Fill-9" fill="#1D1D1B"></path>
                    <path d="M109.967349,33.6432579 C105.784449,33.173264 103.828779,30.8648287 103.828779,25.7867084 L103.828779,1.06284207 L95.6885485,1.06284207 L95.6885485,26.2523302 C95.6885485,35.577884 101.728569,40.3958682 109.967349,40.9882792 L109.967349,33.6432579 Z" id="Fill-11" fill="#1D1D1B"></path>
                    <path d="M119.527137,1.06218626 L119.527137,25.7882386 C119.527137,30.9013352 117.586797,33.2053984 113.388567,33.6513462 L113.388567,40.9963675 C121.579167,40.4345608 127.667367,35.6143905 127.667367,26.2516744 L127.667367,1.06218626 L119.527137,1.06218626 Z" id="Fill-13" fill="#1D1D1B"></path>
                    <path d="M181.228856,19.1171667 C181.905566,12.6050184 186.522086,7.91163721 193.118366,7.91163721 C197.653856,7.91163721 200.851256,10.0583071 202.712756,13.0771983 L208.932356,8.6658135 C205.386746,3.15048949 200.268716,0.597220183 193.118366,0.597220183 C182.330426,0.597220183 173.655836,8.32260864 172.836776,19.1171667 L181.228856,19.1171667 Z" id="Fill-15" fill="#1D1D1B"></path>
                    <path d="M203.293544,27.9926194 C201.083834,31.3590874 198.234644,33.7964978 193.118804,33.7964978 C186.540044,33.7964978 181.932284,29.033164 181.235864,22.5319458 L172.841594,22.5319458 C173.686934,33.3024577 182.350574,41.0518923 193.118804,41.0518923 C200.735624,41.0518923 206.201864,37.6854242 209.631404,32.3449817 L203.293544,27.9926194 Z" id="Fill-17" fill="#1D1D1B"></path>
                    <polygon id="Fill-19" fill="#1D1D1B" points="227.310837 0.714172159 226.347237 0.714172159 208.960826 40.5281223 217.453647 40.5281223 226.811517 15.3823545 226.829037 15.3408202 226.829037 15.3386342 226.829037 15.3430062 232.004007 29.2701284 225.212817 29.2701284 222.578247 36.0599011 234.540027 36.0599011 236.204427 40.5281223 244.695057 40.5281223"></polygon>
                    <polygon id="Fill-21" fill="#1D1D1B" points="0 59.8691373 2.66304007 59.8691373 6.99486018 66.5889574 11.3288703 59.8691373 13.9941004 59.8691373 13.9941004 74.0804419 11.4909303 74.0804419 11.4909303 63.8892249 6.99486018 70.5893708 6.91602018 70.5893708 2.46156006 63.9307592 2.46156006 74.0804419 0 74.0804419"></polygon>
                    <polygon id="Fill-23" fill="#1D1D1B" points="21.8529156 68.4776771 16.1983354 59.8691373 19.1679755 59.8691373 23.1340656 66.1430097 27.1614757 59.8691373 30.0281858 59.8691373 24.3736056 68.4164686 24.3736056 74.0804419 21.8529156 74.0804419"></polygon>
                    <path d="M44.7644772,67.9705209 L40.7983871,67.9705209 L40.7983871,71.8681914 L44.9462472,71.8681914 C46.6566372,71.8681914 47.6925072,71.1992698 47.6925072,69.9204492 L47.6925072,69.8789148 C47.6925072,68.6809768 46.7376672,67.9705209 44.7644772,67.9705209 Z M46.8997272,63.8892249 C46.8997272,62.7743556 46.0062072,62.0835738 44.3987472,62.0835738 L40.7983871,62.0835738 L40.7983871,65.8588273 L44.2169772,65.8588273 C45.8222472,65.8588273 46.8997272,65.229254 46.8997272,63.9307592 L46.8997272,63.8892249 Z M38.339017,59.8691373 L44.7228672,59.8691373 C46.3522272,59.8691373 47.6333772,60.3172711 48.4458673,61.1282838 C49.0765873,61.7578571 49.4028973,62.5295215 49.4028973,63.4826255 L49.4028973,63.5241598 C49.4028973,65.229254 48.4261573,66.1430097 47.3683872,66.6917002 C49.0349773,67.260065 50.1956773,68.2131689 50.1956773,70.143423 L50.1956773,70.1827714 C50.1956773,72.7207385 48.0998473,74.0804419 44.9287272,74.0804419 L38.339017,74.0804419 L38.339017,59.8691373 Z" id="Fill-25" fill="#1D1D1B"></path>
                    <polygon id="Fill-27" fill="#1D1D1B" points="53.0304134 59.8691373 63.5862137 59.8691373 63.5862137 62.103248 55.5313935 62.103248 55.5313935 65.7976188 62.6707936 65.7976188 62.6707936 68.0295434 55.5313935 68.0295434 55.5313935 71.8463312 63.6869537 71.8463312 63.6869537 74.0804419 53.0304134 74.0804419"></polygon>
                    <path d="M75.287603,68.4370172 L72.8260429,62.7511838 L70.3863828,68.4370172 L75.287603,68.4370172 Z M71.7091429,59.7672689 L74.0261629,59.7672689 L80.2917531,74.0813163 L77.646233,74.0813163 L76.203023,70.6492677 L69.4709628,70.6492677 L68.0058528,74.0813163 L65.4435527,74.0813163 L71.7091429,59.7672689 Z" id="Fill-29" fill="#1D1D1B"></path>
                    <path d="M82.0084941,68.0516222 L82.0084941,59.8693559 L84.5116642,59.8693559 L84.5116642,67.9488793 C84.5116642,70.5895894 85.8716542,71.988641 88.1098343,71.988641 C90.3261144,71.988641 91.6882944,70.670472 91.6882944,68.0516222 L91.6882944,59.8693559 L94.1892745,59.8693559 L94.1892745,67.9292052 C94.1892745,72.1722666 91.7912244,74.3036343 88.0704143,74.3036343 C84.3671242,74.3036343 82.0084941,72.1722666 82.0084941,68.0516222" id="Fill-31" fill="#1D1D1B"></path>
                    <polygon id="Fill-33" fill="#1D1D1B" points="101.133546 62.1843492 96.6199555 62.1843492 96.6199555 59.8693559 108.170016 59.8693559 108.170016 62.1843492 103.656426 62.1843492 103.656426 74.0806605 101.133546 74.0806605"></polygon>
                    <mask id="mask-2" fill="white">
                        <use xlink:href="#path-1"></use>
                    </mask>
                    <g id="Clip-36"></g>
                    <polygon id="Fill-35" fill="#1D1D1B" mask="url(#mask-2)" points="110.965113 74.0797861 113.466093 74.0797861 113.466093 59.8684815 110.965113 59.8684815"></polygon>
                    <polygon id="Fill-37" fill="#1D1D1B" mask="url(#mask-2)" points="117.274065 59.8691373 127.869285 59.8691373 127.869285 62.1447823 119.775045 62.1447823 119.775045 66.0205926 126.953865 66.0205926 126.953865 68.2940516 119.775045 68.2940516 119.775045 74.0804419 117.274065 74.0804419"></polygon>
                    <path d="M130.398078,68.0516222 L130.398078,59.8693559 L132.901248,59.8693559 L132.901248,67.9488793 C132.901248,70.5895894 134.263429,71.988641 136.499419,71.988641 C138.715699,71.988641 140.080069,70.670472 140.080069,68.0516222 L140.080069,59.8693559 L142.581049,59.8693559 L142.581049,67.9292052 C142.581049,72.1722666 140.180809,74.3036343 136.459999,74.3036343 C132.758898,74.3036343 130.398078,72.1722666 130.398078,68.0516222" id="Fill-38" fill="#1D1D1B" mask="url(#mask-2)"></path>
                    <polygon id="Fill-39" fill="#1D1D1B" mask="url(#mask-2)" points="146.027452 59.8691373 148.528432 59.8691373 148.528432 71.8069829 156.013852 71.8069829 156.013852 74.0804419 146.027452 74.0804419"></polygon>
                    <path d="M164.097142,67.0152309 L164.097142,66.9736966 C164.097142,62.9339349 167.128102,59.6264893 171.440212,59.6264893 C174.063833,59.6264893 175.649393,60.5402449 177.011573,61.8387397 L175.406303,63.6859252 C174.267503,62.6300784 173.045483,61.9196224 171.420502,61.9196224 C168.713662,61.9196224 166.720762,64.1537331 166.720762,66.9343483 L166.720762,66.9736966 C166.720762,69.7564978 168.693952,72.0102826 171.420502,72.0102826 C173.168123,72.0102826 174.287213,71.3195009 175.507043,70.1827714 L177.114503,71.8069829 C175.629683,73.3503118 174.002513,74.3252759 171.337282,74.3252759 C167.189422,74.3252759 164.097142,71.096527 164.097142,67.0152309" id="Fill-40" fill="#1D1D1B" mask="url(#mask-2)"></path>
                    <polygon id="Fill-41" fill="#1D1D1B" mask="url(#mask-2)" points="179.745788 59.8691373 182.248958 59.8691373 182.248958 65.7779446 189.040148 65.7779446 189.040148 59.8691373 191.543318 59.8691373 191.543318 74.0804419 189.040148 74.0804419 189.040148 68.0929379 182.248958 68.0929379 182.248958 74.0804419 179.745788 74.0804419"></polygon>
                    <path d="M206.843753,67.0152309 L206.843753,66.9736966 C206.843753,64.2149416 204.831143,61.9196224 202.003853,61.9196224 C199.176563,61.9196224 197.203373,64.1734072 197.203373,66.9343483 L197.203373,66.9736966 C197.203373,69.7368236 199.218173,72.0102826 202.045463,72.0102826 C204.872753,72.0102826 206.843753,69.776172 206.843753,67.0152309 M194.579753,67.0152309 L194.579753,66.9736966 C194.579753,62.9754692 197.672033,59.6264893 202.045463,59.6264893 C206.418893,59.6264893 209.467373,62.9339349 209.467373,66.9343483 L209.467373,66.9736966 C209.467373,70.97411 206.377283,74.3252759 202.003853,74.3252759 C197.630423,74.3252759 194.579753,71.0156443 194.579753,67.0152309" id="Fill-42" fill="#1D1D1B" mask="url(#mask-2)"></path>
                    <polygon id="Fill-43" fill="#1D1D1B" mask="url(#mask-2)" points="212.651196 74.0797861 215.152176 74.0797861 215.152176 59.8684815 212.651196 59.8684815"></polygon>
                    <path d="M218.328552,67.0152309 L218.328552,66.9736966 C218.328552,62.9339349 221.359512,59.6264893 225.671622,59.6264893 C228.295242,59.6264893 229.880802,60.5402449 231.242982,61.8387397 L229.637712,63.6859252 C228.496722,62.6300784 227.276892,61.9196224 225.649722,61.9196224 C222.945072,61.9196224 220.952172,64.1537331 220.952172,66.9343483 L220.952172,66.9736966 C220.952172,69.7564978 222.925362,72.0102826 225.649722,72.0102826 C227.399532,72.0102826 228.518622,71.3195009 229.738452,70.1827714 L231.343722,71.8069829 C229.861092,73.3503118 228.231732,74.3252759 225.568692,74.3252759 C221.420832,74.3252759 218.328552,71.096527 218.328552,67.0152309" id="Fill-44" fill="#1D1D1B" mask="url(#mask-2)"></path>
                    <polygon id="Fill-45" fill="#1D1D1B" mask="url(#mask-2)" points="233.977197 59.8691373 244.532997 59.8691373 244.532997 62.103248 236.478177 62.103248 236.478177 65.7976188 243.617577 65.7976188 243.617577 68.0295434 236.478177 68.0295434 236.478177 71.8463312 244.633737 71.8463312 244.633737 74.0804419 233.977197 74.0804419"></polygon>
                </g>
            </g>
        </g>
    </g>
</svg>