<?xml version="1.0" encoding="UTF-8"?>
<svg width="90px" height="28px" viewBox="0 0 90 28" version="1.1" xmlns="http://www.w3.org/2000/svg" xmlns:xlink="http://www.w3.org/1999/xlink">
    <!-- Generator: Sketch 48.1 (47250) - http://www.bohemiancoding.com/sketch -->
    <title>logo</title>
    <desc>Created with Sketch.</desc>
    <defs>
        <polygon id="path-1" points="0 27.1653333 89.6010132 27.1653333 89.6010132 0.218121647 0 0.218121647"></polygon>
    </defs>
    <g id="Page-1" stroke="none" stroke-width="1" fill="none" fill-rule="evenodd">
        <g id="logo">
            <g id="Page-1">
                <polygon id="Fill-1" fill="#FFFFFF" points="18.4121008 14.696 21.5556303 14.696 21.5556303 0.445333333 18.4121008 0.445333333"></polygon>
                <polygon id="Fill-2" fill="#FFFFFF" points="7.18560564 4.66817991 0 0.445333333 0 3.79315342 7.18560564 8.016 14.3704202 3.79315342 14.3704202 0.445333333"></polygon>
                <polygon id="Fill-3" fill="#FFFFFF" points="11.6759664 7.02299461 14.8194958 5.344 14.8194958 15.1413333 11.6759664 15.1413333"></polygon>
                <polygon id="Fill-4" fill="#FFFFFF" points="0 15.1413333 3.14352941 15.1413333 3.14352941 7.02233205 0 5.344"></polygon>
                <polygon id="Fill-5" fill="#FFFFFF" points="24.6991597 0.445333333 24.6991597 14.696 27.8426891 14.696 27.8426891 12.118819 27.8409986 12.118819 27.8409986 0.445333333"></polygon>
                <polygon id="Fill-6" fill="#FFFFFF" points="29.189916 15.1413333 34.5788235 15.1413333 34.5788235 12.4693333 29.189916 12.4693333"></polygon>
                <g id="Group-46">
                    <path d="M52.0903673,6.98724333 C52.3381609,4.60708074 54.0286098,2.89166984 56.4439952,2.89166984 C58.1047731,2.89166984 59.2755774,3.67626858 59.9572101,4.7796605 L62.2346651,3.16731807 C60.9363553,1.15149054 59.0622665,0.218281443 56.4439952,0.218281443 C52.4937335,0.218281443 49.3173253,3.04187815 49.017407,6.98724333 L52.0903673,6.98724333 Z" id="Fill-7" fill="#FFFFFF"></path>
                    <path d="M56.4437546,12.3522369 C54.0347846,12.3522369 52.3483453,10.6112586 52.0925325,8.23588988 L49.0187702,8.23588988 C49.3283116,12.1716673 52.5007102,15.0040528 56.4437546,15.0040528 C59.2328351,15.0040528 61.2344293,13.773623 62.4910391,11.8217139 L60.1694785,10.2309439 C59.3603405,11.4613737 58.3170415,12.3522369 56.4437546,12.3522369" id="Fill-9" fill="#FFFFFF"></path>
                    <path d="M40.2671683,12.296468 C38.7354996,12.1246872 38.0193844,11.280964 38.0193844,9.4249325 L38.0193844,0.388464267 L35.0386449,0.388464267 L35.0386449,9.59511533 C35.0386449,13.0035657 37.2503424,14.7645185 40.2671683,14.9810421 L40.2671683,12.296468 Z" id="Fill-11" fill="#FFFFFF"></path>
                    <path d="M43.7677128,0.388224573 L43.7677128,9.42549179 C43.7677128,11.2943069 43.057211,12.1364323 41.5199289,12.2994243 L41.5199289,14.9839984 C44.5191126,14.7786604 46.7484523,13.0169087 46.7484523,9.59487563 L46.7484523,0.388224573 L43.7677128,0.388224573 Z" id="Fill-13" fill="#FFFFFF"></path>
                    <path d="M66.3612691,6.98724333 C66.6090627,4.60708074 68.2995116,2.89166984 70.714897,2.89166984 C72.3756749,2.89166984 73.5464792,3.67626858 74.2281119,4.7796605 L76.5055669,3.16731807 C75.2072571,1.15149054 73.3331683,0.218281443 70.714897,0.218281443 C66.7646353,0.218281443 63.5882271,3.04187815 63.2883088,6.98724333 L66.3612691,6.98724333 Z" id="Fill-15" fill="#FFFFFF"></path>
                    <path d="M74.4407813,10.2311836 C73.6316432,11.4616134 72.5883443,12.3524766 70.7150574,12.3524766 C68.3060874,12.3524766 66.6188461,10.6114983 66.3638353,8.2353306 L63.290073,8.2353306 C63.5996144,12.171907 66.772013,15.0042925 70.7150574,15.0042925 C73.5041378,15.0042925 75.5057321,13.7738627 76.76154,11.8219536 L74.4407813,10.2311836 Z" id="Fill-17" fill="#FFFFFF"></path>
                    <polygon id="Fill-19" fill="#FFFFFF" points="83.235286 0.261026894 82.8824408 0.261026894 76.5159918 14.8128568 79.6258406 14.8128568 83.052448 5.62218533 83.0588634 5.6070047 83.0588634 5.60620572 83.0588634 5.60780368 84.9538022 10.6981078 82.4670459 10.6981078 81.5023352 13.1797409 85.8824264 13.1797409 86.4918862 14.8128568 89.600933 14.8128568"></polygon>
                    <polygon id="Fill-21" fill="#FFFFFF" points="0 21.8819157 0.975135654 21.8819157 2.56133493 24.3379814 4.14833613 21.8819157 5.12427371 21.8819157 5.12427371 27.0760872 4.20767827 27.0760872 4.20767827 23.3512406 2.56133493 25.8001155 2.53246579 25.8001155 0.901358944 23.3664213 0.901358944 27.0760872 0 27.0760872"></polygon>
                    <polygon id="Fill-23" fill="#FFFFFF" points="8.00196639 25.0283005 5.93140696 21.8819157 7.01881152 21.8819157 8.47109004 24.1749894 9.94582233 21.8819157 10.9955366 21.8819157 8.92497719 25.005929 8.92497719 27.0760872 8.00196639 27.0760872"></polygon>
                    <path d="M16.3915813,24.842937 L14.9393028,24.842937 L14.9393028,26.2675191 L16.4581407,26.2675191 C17.0844408,26.2675191 17.4637493,26.0230311 17.4637493,25.5556275 L17.4637493,25.5404469 C17.4637493,25.1026057 17.1141119,24.842937 16.3915813,24.842937 Z M17.173454,23.3512406 C17.173454,22.9437606 16.8462703,22.6912828 16.2576605,22.6912828 L14.9393028,22.6912828 L14.9393028,24.071122 L16.1911011,24.071122 C16.778909,24.071122 17.173454,23.8410156 17.173454,23.3664213 L17.173454,23.3512406 Z M14.0387457,21.8819157 L16.3763448,21.8819157 C16.9729738,21.8819157 17.4420975,22.0457067 17.7396101,22.3421284 C17.9705633,22.5722348 18.0900495,22.8542748 18.0900495,23.2026303 L18.0900495,23.2178109 C18.0900495,23.8410156 17.7323928,24.1749894 17.3450651,24.3755335 C17.9553268,24.5832684 18.3803448,24.9316239 18.3803448,25.6371235 L18.3803448,25.6515052 C18.3803448,26.5791214 17.6129066,27.0760872 16.4517253,27.0760872 L14.0387457,27.0760872 L14.0387457,21.8819157 Z" id="Fill-25" fill="#FFFFFF"></path>
                    <polygon id="Fill-27" fill="#FFFFFF" points="19.418351 21.8819157 23.2836091 21.8819157 23.2836091 22.6984737 20.3341445 22.6984737 20.3341445 24.0487505 22.9484062 24.0487505 22.9484062 24.8645095 20.3341445 24.8645095 20.3341445 26.2595293 23.3204975 26.2595293 23.3204975 27.0760872 19.418351 27.0760872"></polygon>
                    <path d="M27.568352,25.0134394 L26.666993,22.9352914 L25.7736533,25.0134394 L27.568352,25.0134394 Z M26.2580134,21.8446832 L27.1064456,21.8446832 L29.4007409,27.0764068 L28.4320206,27.0764068 L27.9035549,25.8220076 L25.4384504,25.8220076 L24.9019654,27.0764068 L23.9637181,27.0764068 L26.2580134,21.8446832 Z" id="Fill-29" fill="#FFFFFF"></path>
                    <path d="M30.0293666,24.8725792 L30.0293666,21.8819956 L30.9459621,21.8819956 L30.9459621,24.8350271 C30.9459621,25.8001954 31.4439549,26.3115429 32.2635179,26.3115429 C33.0750617,26.3115429 33.5738564,25.8297577 33.5738564,24.8725792 L33.5738564,21.8819956 L34.4896499,21.8819956 L34.4896499,24.8278363 C34.4896499,26.3786572 33.6115467,27.1576631 32.2490833,27.1576631 C30.8930353,27.1576631 30.0293666,26.3786572 30.0293666,24.8725792" id="Fill-31" fill="#FFFFFF"></path>
                    <polygon id="Fill-33" fill="#FFFFFF" points="37.0324605 22.7281158 35.3797018 22.7281158 35.3797018 21.8819956 39.6090319 21.8819956 39.6090319 22.7281158 37.9562732 22.7281158 37.9562732 27.0761671 37.0324605 27.0761671"></polygon>
                    <mask id="mask-2" fill="white">
                        <use xlink:href="#path-1"></use>
                    </mask>
                    <g id="Clip-36"></g>
                    <polygon id="Fill-35" fill="#FFFFFF" mask="url(#mask-2)" points="40.6325234 27.0758475 41.5483169 27.0758475 41.5483169 21.881676 40.6325234 21.881676"></polygon>
                    <polygon id="Fill-37" fill="#FFFFFF" mask="url(#mask-2)" points="42.9426968 21.8819157 46.8223894 21.8819157 46.8223894 22.7136543 43.8584903 22.7136543 43.8584903 24.1302465 46.4871866 24.1302465 46.4871866 24.9611861 43.8584903 24.9611861 43.8584903 27.0760872 42.9426968 27.0760872"></polygon>
                    <path d="M47.7483673,24.8725792 L47.7483673,21.8819956 L48.6649628,21.8819956 L48.6649628,24.8350271 C48.6649628,25.8001954 49.1637575,26.3115429 49.9825186,26.3115429 C50.7940624,26.3115429 51.2936591,25.8297577 51.2936591,24.8725792 L51.2936591,21.8819956 L52.2094526,21.8819956 L52.2094526,24.8278363 C52.2094526,26.3786572 51.3305474,27.1576631 49.968084,27.1576631 C48.6128379,27.1576631 47.7483673,26.3786572 47.7483673,24.8725792" id="Fill-38" fill="#FFFFFF" mask="url(#mask-2)"></path>
                    <polygon id="Fill-39" fill="#FFFFFF" mask="url(#mask-2)" points="53.4714353 21.8819157 54.3872288 21.8819157 54.3872288 26.2451476 57.128194 26.2451476 57.128194 27.0760872 53.4714353 27.0760872"></polygon>
                    <path d="M60.0880836,24.4937826 L60.0880836,24.478602 C60.0880836,23.0020862 61.1979419,21.7932289 62.7769239,21.7932289 C63.737625,21.7932289 64.3182156,22.1272027 64.8170103,22.601797 L64.2292024,23.2769355 C63.8122036,22.8910279 63.3647318,22.6313593 62.7697066,22.6313593 C61.7785325,22.6313593 61.0487846,23.4479173 61.0487846,24.4642203 L61.0487846,24.478602 C61.0487846,25.495704 61.7713152,26.3194528 62.7697066,26.3194528 C63.4096394,26.3194528 63.8194209,26.066975 64.2660908,25.6515052 L64.8547006,26.2451476 C64.3109983,26.8092278 63.7151712,27.165573 62.7392336,27.165573 C61.2203957,27.165573 60.0880836,25.985479 60.0880836,24.4937826" id="Fill-40" fill="#FFFFFF" mask="url(#mask-2)"></path>
                    <polygon id="Fill-41" fill="#FFFFFF" mask="url(#mask-2)" points="65.8182084 21.8819157 66.7348038 21.8819157 66.7348038 24.0415597 69.2215601 24.0415597 69.2215601 21.8819157 70.1381556 21.8819157 70.1381556 27.0760872 69.2215601 27.0760872 69.2215601 24.8876799 66.7348038 24.8876799 66.7348038 27.0760872 65.8182084 27.0760872"></polygon>
                    <path d="M75.740775,24.4937826 L75.740775,24.478602 C75.740775,23.4702887 75.0038098,22.6313593 73.9685301,22.6313593 C72.9332504,22.6313593 72.2107198,23.4551081 72.2107198,24.4642203 L72.2107198,24.478602 C72.2107198,25.4885132 72.9484869,26.3194528 73.9837666,26.3194528 C75.0190463,26.3194528 75.740775,25.5028948 75.740775,24.4937826 M71.2500187,24.4937826 L71.2500187,24.478602 C71.2500187,23.0172668 72.3823309,21.7932289 73.9837666,21.7932289 C75.5852024,21.7932289 76.7014761,23.0020862 76.7014761,24.4642203 L76.7014761,24.478602 C76.7014761,25.9407361 75.5699659,27.165573 73.9685301,27.165573 C72.3670944,27.165573 71.2500187,25.9559167 71.2500187,24.4937826" id="Fill-42" fill="#FFFFFF" mask="url(#mask-2)"></path>
                    <polygon id="Fill-43" fill="#FFFFFF" mask="url(#mask-2)" points="77.8673085 27.0758475 78.783102 27.0758475 78.783102 21.881676 77.8673085 21.881676"></polygon>
                    <path d="M79.9462079,24.4937826 L79.9462079,24.478602 C79.9462079,23.0020862 81.0560663,21.7932289 82.6350483,21.7932289 C83.5957493,21.7932289 84.17634,22.1272027 84.6751347,22.601797 L84.0873268,23.2769355 C83.6695261,22.8910279 83.2228562,22.6313593 82.6270291,22.6313593 C81.6366569,22.6313593 80.906909,23.4479173 80.906909,24.4642203 L80.906909,24.478602 C80.906909,25.495704 81.6294396,26.3194528 82.6270291,26.3194528 C83.2677637,26.3194528 83.6775453,26.066975 84.1242151,25.6515052 L84.712023,26.2451476 C84.1691227,26.8092278 83.5724936,27.165573 82.597358,27.165573 C81.07852,27.165573 79.9462079,25.985479 79.9462079,24.4937826" id="Fill-44" fill="#FFFFFF" mask="url(#mask-2)"></path>
                    <polygon id="Fill-45" fill="#FFFFFF" mask="url(#mask-2)" points="85.6763328 21.8819157 89.5415909 21.8819157 89.5415909 22.6984737 86.5921263 22.6984737 86.5921263 24.0487505 89.206388 24.0487505 89.206388 24.8645095 86.5921263 24.8645095 86.5921263 26.2595293 89.5784792 26.2595293 89.5784792 27.0760872 85.6763328 27.0760872"></polygon>
                </g>
            </g>
        </g>
    </g>
</svg>