<?xml version="1.0" encoding="UTF-8"?>
<svg width="24px" height="24px" viewBox="0 0 24 24" version="1.1" xmlns="http://www.w3.org/2000/svg" xmlns:xlink="http://www.w3.org/1999/xlink">
    <!-- Generator: Sketch 48.1 (47250) - http://www.bohemiancoding.com/sketch -->
    <title>instagram</title>
    <desc>Created with Sketch.</desc>
    <defs></defs>
    <g id="Page-1" stroke="none" stroke-width="1" fill="none" fill-rule="evenodd">
        <g id="instagram" fill="#B1B1B1">
            <path d="M12.0000218,1 C14.9874207,1 15.3620189,1.01311497 16.5352859,1.06855961 C17.7061076,1.12386851 18.5057369,1.31647762 19.205418,1.59813281 C19.9287653,1.88923984 20.5422087,2.27879955 21.1537748,2.91216184 C21.765297,3.54556955 22.1414236,4.18092168 22.4225361,4.93010279 C22.6944354,5.65477248 22.8804028,6.48295996 22.9338045,7.69559679 C22.9873373,8.91076609 23,9.29874285 23,12.3928798 C23,15.4869714 22.9873373,15.8749482 22.9338045,17.0901175 C22.8804028,18.3027543 22.6944354,19.1309418 22.4225361,19.8556115 C22.1414236,20.6047926 21.765297,21.2401447 21.1537748,21.8735524 C20.5422087,22.5069147 19.9287653,22.8964744 19.205418,23.1876267 C18.5057369,23.4692367 17.7061076,23.6618458 16.5352859,23.7171547 C15.3620189,23.7725993 14.9874207,23.7857143 12.0000218,23.7857143 C9.0125793,23.7857143 8.63798106,23.7725993 7.46471414,23.7171547 C6.29389237,23.6618458 5.49426309,23.4692367 4.794582,23.1876267 C4.07123473,22.8964744 3.45779129,22.5069147 2.84622523,21.8735524 C2.23470301,21.2401447 1.8585764,20.6047926 1.57750754,19.8556115 C1.3055646,19.1309418 1.11959719,18.3027543 1.06619549,17.0901175 C1.01266273,15.8749482 1,15.4869714 1,12.3928798 C1,9.29874285 1.01266273,8.91076609 1.06619549,7.69559679 C1.11959719,6.48295996 1.3055646,5.65477248 1.57750754,4.93010279 C1.8585764,4.18092168 2.23470301,3.54556955 2.84622523,2.91216184 C3.45779129,2.27879955 4.07123473,1.88923984 4.794582,1.59813281 C5.49426309,1.31647762 6.29389237,1.12386851 7.46471414,1.06855961 C8.63798106,1.01311497 9.0125793,1 12.0000218,1 Z M12.0000218,3.05276337 C9.06288089,3.05276337 8.71496173,3.06438604 7.55505604,3.1191974 C6.48256689,3.16984842 5.90012521,3.35544766 5.51251491,3.51147056 C4.9990632,3.71814431 4.6326301,3.96502232 4.2477269,4.36371715 C3.86278017,4.76236689 3.6244152,5.14188689 3.42486813,5.67367616 C3.27422533,6.07512969 3.09502606,6.67837285 3.04612163,7.78916519 C2.99320031,8.99049608 2.98197843,9.35084092 2.98197843,12.3928798 C2.98197843,15.4348734 2.99320031,15.7952182 3.04612163,16.9965491 C3.09502606,18.1073414 3.27422533,18.7105846 3.42486813,19.1120381 C3.6244152,19.6438274 3.86282386,20.0233474 4.2477269,20.4219971 C4.6326301,20.820692 4.9990632,21.06757 5.51251491,21.2742437 C5.90012521,21.4302666 6.48256689,21.6158659 7.55505604,21.6665169 C8.71483067,21.7213282 9.06266261,21.7329509 12.0000218,21.7329509 C14.9373374,21.7329509 15.285213,21.7213282 16.444944,21.6665169 C17.5174331,21.6158659 18.0998748,21.4302666 18.4874851,21.2742437 C19.0009368,21.06757 19.3673699,20.820692 19.7522731,20.4219971 C20.1372198,20.0233474 20.3755848,19.6438274 20.5751319,19.1120381 C20.7257747,18.7105846 20.9049739,18.1073414 20.9538784,16.9965491 C21.0067997,15.7952182 21.0180216,15.4348734 21.0180216,12.3928798 C21.0180216,9.35084092 21.0067997,8.99049608 20.9538784,7.78916519 C20.9049739,6.67837285 20.7257747,6.07512969 20.5751319,5.67367616 C20.3755848,5.14188689 20.1372198,4.76236689 19.7522731,4.36371715 C19.3673699,3.96502232 19.0009368,3.71814431 18.4874851,3.51147056 C18.0998748,3.35544766 17.5174331,3.16984842 16.444944,3.1191974 C15.2850383,3.06438604 14.9371191,3.05276337 12.0000218,3.05276337 Z M12.0000218,6.54247478 C15.1196806,6.54247478 17.648645,9.16175936 17.648645,12.3928798 C17.648645,15.6239549 15.1196806,18.2432395 12.0000218,18.2432395 C8.88031939,18.2432395 6.35135496,15.6239549 6.35135496,12.3928798 C6.35135496,9.16175936 8.88031939,6.54247478 12.0000218,6.54247478 Z M12.0000218,16.1904761 C14.0250535,16.1904761 15.6666666,14.490234 15.6666666,12.3928798 C15.6666666,10.2954803 14.0250535,8.59523815 12.0000218,8.59523815 C9.97494651,8.59523815 8.33333339,10.2954803 8.33333339,12.3928798 C8.33333339,14.490234 9.97494651,16.1904761 12.0000218,16.1904761 Z M19.1918383,6.3113347 C19.1918383,7.06639501 18.6008384,7.67845689 17.8718148,7.67845689 C17.1428347,7.67845689 16.5518347,7.06639501 16.5518347,6.3113347 C16.5518347,5.55627456 17.1428347,4.94416743 17.8718148,4.94416743 C18.6008384,4.94416743 19.1918383,5.55627456 19.1918383,6.3113347 Z" id="Instagram"></path>
        </g>
    </g>
</svg>