<?xml version="1.0" encoding="UTF-8"?>
<svg width="24px" height="24px" viewBox="0 0 24 24" version="1.1" xmlns="http://www.w3.org/2000/svg" xmlns:xlink="http://www.w3.org/1999/xlink">
    <!-- Generator: Sketch 48.1 (47250) - http://www.bohemiancoding.com/sketch -->
    <title>mobile-menu</title>
    <desc>Created with Sketch.</desc>
    <defs></defs>
    <g id="Page-1" stroke="none" stroke-width="1" fill="none" fill-rule="evenodd">
        <g id="mobile-menu" fill="#B1B1B1">
            <path d="M20.1,10.8947368 L3.9,10.8947368 C3.4032,10.8947368 3,11.3898947 3,12 C3,12.6101053 3.4032,13.1052632 3.9,13.1052632 L20.1,13.1052632 C20.5968,13.1052632 21,12.6101053 21,12 C21,11.3898947 20.5968,10.8947368 20.1,10.8947368 M20.1,16.7894737 L3.9,16.7894737 C3.4032,16.7894737 3,17.2846316 3,17.8947368 C3,18.5048421 3.4032,19 3.9,19 L20.1,19 C20.5968,19 21,18.5048421 21,17.8947368 C21,17.2846316 20.5968,16.7894737 20.1,16.7894737 M3.9,7.21052632 L20.1,7.21052632 C20.5968,7.21052632 21,6.71536842 21,6.10526316 C21,5.49515789 20.5968,5 20.1,5 L3.9,5 C3.4032,5 3,5.49515789 3,6.10526316 C3,6.71536842 3.4032,7.21052632 3.9,7.21052632" id="icon"></path>
        </g>
    </g>
</svg>