<?xml version="1.0" encoding="UTF-8"?>
<svg width="90px" height="15px" viewBox="0 0 90 15" version="1.1" xmlns="http://www.w3.org/2000/svg" xmlns:xlink="http://www.w3.org/1999/xlink">
    <!-- Generator: Sketch 48.1 (47250) - http://www.bohemiancoding.com/sketch -->
    <title>Group 47</title>
    <desc>Created with Sketch.</desc>
    <defs></defs>
    <g id="mobile-logo" stroke="none" stroke-width="1" fill="none" fill-rule="evenodd">
        <g id="Group-47" fill="#FFFFFF">
            <polygon id="Fill-1" points="18.3897062 14.7057615 21.3717308 14.7057615 21.3717308 0.245680979 18.3897062 0.245680979"></polygon>
            <polygon id="Fill-2" points="7.28650704 4.35447837 -3.02421231e-05 0.245680979 -3.02421231e-05 3.50278429 7.28650704 7.6115062 14.5730443 3.50278429 14.5730443 0.245680979"></polygon>
            <polygon id="Fill-3" points="11.5910122 6.57277758 14.5730368 4.8912026 14.5730368 14.7057615 11.5910122 14.7057615"></polygon>
            <polygon id="Fill-4" points="0 14.7057539 2.98210021 14.7057539 2.98210021 6.57284553 0 4.89119506"></polygon>
            <polygon id="Fill-5" points="27.8508714 12.0901912 27.8503422 12.0901912 27.8503422 0.245650788 24.8680907 0.245650788 24.8680907 14.7058068 27.8508714 14.7058068"></polygon>
            <polygon id="Fill-6" points="29.1044906 14.7057615 34.4108491 14.7057615 34.4108491 12.0901459 29.1044906 12.0901459"></polygon>
            <path d="M52.0909389,6.86068087 C52.3388487,4.47436754 54.0294592,2.75497807 56.4461073,2.75497807 C58.107685,2.75497807 59.2791894,3.54168555 59.9606957,4.64751415 L62.2398932,3.03130313 C60.940616,1.01113373 59.0661335,0.0755080979 56.4461073,0.0755080979 C52.4946713,0.0755080979 49.3167534,2.90540578 49.0163735,6.86068087 L52.0909389,6.86068087 Z" id="Fill-7"></path>
            <path d="M56.4461452,12.2390036 C54.0363015,12.2390036 52.3484887,10.4935742 52.0930182,8.112016 L49.0179235,8.112016 C49.3279808,12.0582337 52.5017404,14.8971887 56.4461452,14.8971887 C59.2364348,14.8971887 61.2389169,13.6638023 62.4956284,11.7074118 L60.1737137,10.1125611 C59.3644344,11.3459475 58.3206277,12.2390036 56.4461452,12.2390036" id="Fill-9"></path>
            <path d="M40.2623675,12.1829159 C38.7297724,12.010675 38.0134119,11.1644153 38.0134119,9.30441032 L38.0134119,0.245688407 L35.0313875,0.245688407 L35.0313875,9.47461327 C35.0313875,12.891881 37.2442035,14.6566327 40.2623675,14.8738585 L40.2623675,12.1829159 Z" id="Fill-11"></path>
            <path d="M43.7646474,0.245665763 L43.7646474,9.30446316 C43.7646474,11.1784316 43.053655,12.0226534 41.515843,12.1859878 L41.515843,14.876704 C44.5167691,14.6707245 46.7468233,12.9052179 46.7468233,9.47459062 L46.7468233,0.245665763 L43.7646474,0.245665763 Z" id="Fill-13"></path>
            <path d="M66.368238,6.86068087 C66.6161479,4.47436754 68.3067583,2.75497807 70.7234818,2.75497807 C72.3849841,2.75497807 73.5564886,3.54168555 74.2379948,4.64751415 L76.517268,3.03130313 C75.2179151,1.01113373 73.3434327,0.0755080979 70.7234818,0.0755080979 C66.7720461,0.0755080979 63.5940525,2.90540578 63.293748,6.86068087 L66.368238,6.86068087 Z" id="Fill-15"></path>
            <path d="M74.4510278,10.1125385 C73.6416731,11.3459249 72.5979417,12.2389809 70.7234593,12.2389809 C68.3136156,12.2389809 66.6258782,10.4935515 66.370408,8.1120688 L63.2952375,8.1120688 C63.6052194,12.0582865 66.7789791,14.8972416 70.7234593,14.8972416 C73.5138242,14.8972416 75.5161555,13.6637796 76.7729424,11.7073892 L74.4510278,10.1125385 Z" id="Fill-17"></path>
            <polygon id="Fill-19" points="83.2494821 0.118115444 82.8963297 0.118115444 76.5273385 14.7058293 79.6382701 14.7058293 83.0671977 5.4925284 83.0728681 5.47713086 83.0729437 5.47720635 83.0730194 5.47682895 83.0731706 5.47796112 84.96852 10.5804267 82.4808786 10.5804267 81.516306 13.0683335 85.8980873 13.0683335 86.5074661 14.7058293 89.6184734 14.7058293"></polygon>
        </g>
    </g>
</svg>